<?xml version="1.0" encoding="UTF-8"?>
<!DOCTYPE svg PUBLIC "-//W3C//DTD SVG 1.1//EN" "http://www.w3.org/Graphics/SVG/1.1/DTD/svg11.dtd">
<!-- Creator: CorelDRAW -->
<svg xmlns="http://www.w3.org/2000/svg" xml:space="preserve" width="100%" height="100%" style="shape-rendering:geometricPrecision; text-rendering:geometricPrecision; image-rendering:optimizeQuality; fill-rule:evenodd; clip-rule:evenodd"
viewBox="0 0 21 29.7"
 xmlns:xlink="http://www.w3.org/1999/xlink">
 <defs>
  <style type="text/css">
   <![CDATA[
    .fil1 {fill:#E77817}
    .fil3 {fill:white}
    .fil0 {fill:#E15616}
    .fil2 {fill:#E35F13}
   ]]>
  </style>
   <mask id="id0">
  <linearGradient id="id1" gradientUnits="userSpaceOnUse" x1="10.2784" y1="8.55423" x2="10.2784" y2="13.9959">
   <stop offset="0" style="stop-opacity:1; stop-color:white"/>
   <stop offset="1" style="stop-opacity:0; stop-color:white"/>
  </linearGradient>
    <rect style="fill:url(#id1)" x="4.18314" y="6.88281" width="12.1905" height="8.78451"/>
   </mask>
   <mask id="id2">
  <linearGradient id="id3" gradientUnits="userSpaceOnUse" x1="10.6032" y1="20.2635" x2="10.6032" y2="14.8218">
   <stop offset="0" style="stop-opacity:1; stop-color:white"/>
   <stop offset="1" style="stop-opacity:0; stop-color:white"/>
  </linearGradient>
    <rect style="fill:url(#id3)" x="4.50794" y="13.1504" width="12.1905" height="8.78451"/>
   </mask>
 </defs>
 <g id="Camada_x0020_1">
  <metadata id="CorelCorpID_0Corel-Layer"/>
  <circle class="fil0" cx="10.6029" cy="13.6952" r="8.51896"/>
  <circle class="fil1" cx="10.6029" cy="13.9204" r="8.03536"/>
  <path class="fil2" d="M11.2108 9.32628c1.27455,0 2.30896,1.01664 2.30896,2.27088 0,1.253 -1.03441,2.2685 -2.30896,2.2685 -1.27707,0 -2.30897,-1.0155 -2.30897,-2.2685 0,-1.25424 1.0319,-2.27088 2.30897,-2.27088zm4.80027 -0.89861l0.0111 0.01131c-0.86066,4.32731 -1.28392,8.37497 -1.27173,12.1114 -1.3697,0.91782 -3.03812,1.45718 -4.83902,1.45718 -0.32833,0 -0.65187,-0.01869 -0.97051,-0.05357 0.32517,-3.71788 -1.41357,-7.80364 -5.37397,-13.2697l0.05552 -0.05979c7.22985,8.94879 9.83971,10.5865 12.3886,-0.19691z"/>
  <path class="fil3" d="M11.8419 9.2749c1.21532,0 2.20165,1.01664 2.20165,2.27088 0,1.253 -0.98633,2.2685 -2.20165,2.2685 -1.2177,0 -2.20165,-1.0155 -2.20165,-2.2685 0,-1.25424 0.98395,-2.27088 2.20165,-2.27088zm4.57716 -0.89862l0.01059 0.01132c-0.82066,4.32731 -1.22425,8.37497 -1.21262,12.1114 -1.30604,0.91782 -2.89691,1.45717 -4.61411,1.45717 -0.31307,0 -0.62157,-0.01868 -0.9254,-0.05356 0.31006,-3.71788 -1.34787,-7.80364 -5.1242,-13.2697l0.05294 -0.05979c6.89382,8.94879 9.38237,10.5865 11.8128,-0.19692z"/>
  <path class="fil3" style="mask:url(#id0)" d="M10.2784 6.88662c3.36363,0 6.09143,1.9652 6.09143,4.38845 0,2.42324 -2.7278,4.38844 -6.09143,4.38844 -3.36363,0 -6.09143,-1.9652 -6.09143,-4.38844 0,-2.42325 2.7278,-4.38845 6.09143,-4.38845z"/>
  <path class="fil1" style="mask:url(#id2)" d="M10.6032 21.9311c3.36363,0 6.09143,-1.9652 6.09143,-4.38844 0,-2.42325 -2.7278,-4.38845 -6.09143,-4.38845 -3.36363,0 -6.09143,1.9652 -6.09143,4.38845 0,2.42324 2.7278,4.38844 6.09143,4.38844z"/>
 </g>
</svg>
